<?xml version="1.0" encoding="utf-8"?>
<!-- Generator: Adobe Illustrator 23.1.0, SVG Export Plug-In . SVG Version: 6.00 Build 0)  -->
<svg version="1.1" xmlns="http://www.w3.org/2000/svg" xmlns:xlink="http://www.w3.org/1999/xlink" x="0px" y="0px"
	 viewBox="0 0 200 200" style="enable-background:new 0 0 200 200;" xml:space="preserve">
<style type="text/css">
	.st0{fill:#FFFFFF;}
	.st1{fill:#CFE2EF;}
	.st2{fill:#E46C6A;}
	.st3{fill:#334960;}
	.st4{fill:#F7F8F8;}
	.st5{fill:#FFA725;}
	.st6{fill:#C84F00;}
	.st7{fill:#E06D00;}
	.st8{fill:#FF8980;}
	.st9{fill:#EAE5E1;}
	.st10{fill:#FFCC60;}
	.st11{fill:#311F1B;}
	.st12{fill:#473A38;}
	.st13{fill:#FFA29E;}
	.st14{fill:#3E3344;}
	.st15{fill:#F48282;}
	.st16{fill:#EBE6EF;}
	.st17{fill:#3F3344;}
	.st18{fill:#EA7513;}
	.st19{fill:#FBF2E3;}
	.st20{fill:#FDE2C5;}
	.st21{fill:#F26261;}
	.st22{fill:#F4CBA8;}
	.st23{fill:#3A2517;}
	.st24{fill:#493326;}
	.st25{fill:#F495A1;}
	.st26{fill:#EF7D90;}
	.st27{fill:#EF8956;}
	.st28{fill:#E0784B;}
	.st29{fill:#FCD2A7;}
	.st30{fill:#F7C394;}
	.st31{fill:#E0A168;}
	.st32{fill:#FF905F;}
	.st33{fill:#1A1819;}
	.st34{fill:#FAFAFA;}
	.st35{fill:#C6C7CC;}
	.st36{fill:#BBBBC4;}
	.st37{fill:#7E9163;}
	.st38{fill:#D5D7DB;}
	.st39{fill:#383838;}
	.st40{fill:#C86A46;}
	.st41{fill:#BF583C;}
	.st42{fill:#512F2A;}
	.st43{fill:#26180E;}
	.st44{fill:#382416;}
	.st45{fill:#30231A;}
	.st46{fill:#704843;}
	.st47{fill:#515465;}
	.st48{fill:#3F4351;}
	.st49{fill:#00000E;}
	.st50{fill:#34343F;}
	.st51{fill:#211918;}
	.st52{fill:#ECE8E7;}
	.st53{fill:#D8D6D6;}
	.st54{fill:#474646;}
	.st55{fill:#2D2D2D;}
	.st56{fill:#262222;}
	.st57{fill:#29343F;}
	.st58{fill:#F99595;}
	.st59{fill:#EF9C37;}
	.st60{fill:#0C0C05;}
	.st61{fill:#FC8383;}
	.st62{fill:#EACA8F;}
	.st63{fill:#D3AD75;}
	.st64{fill:#FFF4E9;}
	.st65{fill:#333333;}
	.st66{fill:#494949;}
	.st67{fill:#17242D;}
	.st68{fill:#FFCE55;}
	.st69{fill:#171308;}
	.st70{fill:#F2A653;}
	.st71{fill:#D38537;}
	.st72{fill:#341F10;}
	.st73{fill:#FFDBAB;}
	.st74{fill:#642912;}
	.st75{fill:#4C311F;}
	.st76{fill:#F4F4F4;}
	.st77{fill:#C9CBD3;}
	.st78{fill:#252B39;}
	.st79{fill:#303344;}
	.st80{fill:#515668;}
	.st81{fill:#FCE6E6;}
	.st82{fill:#F99393;}
	.st83{fill:#181818;}
	.st84{fill:#656161;}
	.st85{fill:#605C5C;}
	.st86{fill:#ECBF0B;}
	.st87{fill:#111111;}
	.st88{fill:#EFEFEF;}
	.st89{fill:#666262;}
	.st90{fill:#EF8D46;}
	.st91{fill:#E5772C;}
	.st92{fill:#D56428;}
	.st93{fill:#C9511C;}
	.st94{fill:#EDCC9F;}
	.st95{fill:#DBB382;}
	.st96{fill:#DDB17C;}
	.st97{fill:#4B1B11;}
	.st98{fill:#F5F3F4;}
	.st99{fill:#FCC0CD;}
	.st100{fill:#EA8395;}
	.st101{fill:#E28813;}
	.st102{fill:#FFC476;}
	.st103{fill:#F7AF59;}
	.st104{fill:#EBD5D2;}
	.st105{fill:#5E331B;}
	.st106{fill:#220E00;}
	.st107{fill:#443735;}
	.st108{fill:#E5A366;}
	.st109{fill:#A4602F;}
	.st110{fill:#1D160B;}
	.st111{fill:#743016;}
	.st112{fill:#49352A;}
	.st113{fill:#B68253;}
	.st114{fill:#A35F2E;}
	.st115{fill:#6A4733;}
	.st116{fill:#0B0102;}
	.st117{fill:#210D03;}
	.st118{fill:#1D1610;}
	.st119{fill:#D87B1C;}
	.st120{fill:#CD5C03;}
	.st121{fill:#8E3A02;}
	.st122{fill:#FFC355;}
	.st123{fill:#EA9C37;}
	.st124{fill:#B85405;}
	.st125{fill:#A55109;}
	.st126{fill:#FFF3CC;}
	.st127{fill:#FCF8A1;}
	.st128{fill:#E6AC7D;}
	.st129{fill:#FBD1AE;}
	.st130{fill:#D79024;}
	.st131{fill:#A8753B;}
	.st132{fill:#B66813;}
	.st133{fill:#28243C;}
	.st134{fill:#AD734D;}
	.st135{fill:#444156;}
	.st136{fill:none;stroke:#311F1B;stroke-width:4;stroke-linecap:round;stroke-linejoin:round;stroke-miterlimit:10;}
	.st137{fill:#FFEFD8;}
	.st138{fill:#947A69;}
	.st139{fill:#7C6152;}
	.st140{fill:#46260F;}
	.st141{fill:#472710;}
	.st142{fill:#593D2B;}
	.st143{fill:#47240E;}
	.st144{fill:#F05A5B;}
	.st145{fill:#484848;}
	.st146{fill:#8A8E91;}
	.st147{fill:#5D2418;}
	.st148{fill:#353535;}
	.st149{fill:#21241F;}
	.st150{fill:#BEBEBE;}
	.st151{fill:#FCD9D9;}
	.st152{fill:#A4DDF3;}
	.st153{fill:#3A3938;}
	.st154{fill:#C18441;}
	.st155{fill:#A6642D;}
	.st156{fill:#FEFFFA;}
	.st157{fill:#DBD7D6;}
	.st158{fill:#1B1B1B;}
	.st159{fill:#DBD7D4;}
	.st160{fill:#484C51;}
	.st161{fill:#3A3E42;}
	.st162{fill:#93949D;}
	.st163{fill:#CFCD8A;}
	.st164{fill:#271C16;}
	.st165{fill:#FEFDFE;}
	.st166{fill:#FFFEF8;}
	.st167{fill:#D6D6D4;}
	.st168{fill:#C05541;}
	.st169{fill:#A03C2E;}
	.st170{fill:#3F3331;}
	.st171{fill:#ED8F4F;}
	.st172{fill:#D17537;}
	.st173{fill:#D3CFBA;}
	.st174{fill:#FDFAE9;}
	.st175{fill:#423532;}
	.st176{fill:#8E5133;}
	.st177{fill:#F9F0E8;}
	.st178{fill:#E4D7D5;}
	.st179{fill:#683421;}
	.st180{fill:#75512B;}
	.st181{fill:#160500;}
	.st182{fill:#EEC9C9;}
	.st183{fill:#A1959F;}
	.st184{fill:#42404E;}
	.st185{fill:#6F6172;}
	.st186{fill:#413F4D;}
	.st187{fill:#6C6675;}
	.st188{fill:#E27C00;}
	.st189{fill:#151217;}
	.st190{fill:#272528;}
	.st191{fill:#1D1B29;}
	.st192{fill:#BAB9BA;}
	.st193{fill:#373642;}
	.st194{fill:#EA9243;}
	.st195{fill:#CC7833;}
	.st196{fill:#4A3A43;}
	.st197{fill:#6D656A;}
</style>
<g id="图层_1">
</g>
<g id="图层_2">
	<g id="拉菲">
		<g>
			<g>
				<g>
					<path class="st0" d="M21.53,93.41c2.92-5.3,10.66-8.83,10.66-8.83s-10.31,27.16-8.36,46.53c6.82-7.43,8.77-10.52,8.77-10.52
						s-5.36,20.53,4.87,39.64c2.44-9.2,4.63-15.59,4.63-15.59s3.29,23.39,13.52,36.54c2.19-11.33,3.29-13.52,3.29-13.52
						s6.53,13.16,14.96,18.27c0.02-6.6,0-14.25,0-14.25s15.57,14.48,28.29,15.93c13.02-4.77,23.77-16.06,23.77-16.06
						s-0.02,7.65,0,14.25c8.43-5.12,14.96-18.27,14.96-18.27s1.1,2.19,3.29,13.52c10.23-13.16,13.52-36.54,13.52-36.54
						s2.19,6.39,4.63,15.59c10.23-19.1,4.87-39.64,4.87-39.64s1.95,3.09,8.77,10.52c1.95-19.37-8.36-46.53-8.36-46.53
						s7.74,3.53,10.66,8.83c-0.97-27.35-17.18-41.61-17.18-41.61s-2.68-36.91-12.43-39.1c-8.76-1.18-21.54,15.8-25.28,21.91
						c-0.2,0.33-0.53,0.54-0.91,0.6c-2.74,0.44-5.71,1.33-8.14,2.18c-1.25,0.43-2.29-1.03-1.46-2.07c0.47-0.59,0.98-1.25,1.52-1.98
						c0.7-0.95-0.11-2.28-1.29-2.09c-5.76,0.92-11.34,2.9-15.13,4.47c-1.27,0.52-2.39-1-1.52-2.06c0.16-0.19,0.33-0.4,0.5-0.6
						c0.72-0.87,0.09-2.2-1.04-2.18c-10.52,0.23-18.15,7.04-18.15,7.04c-20.1-29.97-26.2-25.22-26.2-25.22
						c-11.8,1.83-12.43,39.1-12.43,39.1S18.88,73.2,21.53,93.41z"/>
				</g>
			</g>
			<g>
				<g>
					<ellipse class="st13" cx="58.75" cy="95.61" rx="10.84" ry="4.88"/>
				</g>
			</g>
			<g>
				<g>
					<ellipse class="st13" cx="140.58" cy="95.61" rx="10.84" ry="4.88"/>
				</g>
			</g>
			<g>
				<g>
					<circle class="st14" cx="76.88" cy="74.48" r="8.38"/>
				</g>
			</g>
			<g>
				<g>
					<circle class="st14" cx="124.25" cy="74.48" r="8.38"/>
				</g>
			</g>
			<g>
				<g>
					<path class="st14" d="M99.57,96.22c-2.74,0.3-7.03-4.41-7.86-5.86s-1.1-6.41,8.62-6.41s8.27,5.24,6.76,7.17
						C105.57,93.05,102.12,95.95,99.57,96.22z"/>
				</g>
			</g>
			<g>
				<g>
					<path class="st13" d="M129.75,38.42c0,0,10.87-19.46,17.08-17.45c6.21,2.01,5.85,25.22,5.85,25.22S138.61,39.15,129.75,38.42z"
						/>
				</g>
			</g>
			<g>
				<g>
					<path class="st13" d="M69.22,38.42c0,0-10.87-19.46-17.08-17.45s-5.85,25.22-5.85,25.22S60.36,39.15,69.22,38.42z"/>
				</g>
			</g>
			<g>
				<g>
					<path class="st8" d="M87.51,105.7c0,0,1.63,20.64,12.25,20.64s12.13-20.64,12.13-20.64s-10.14-1.9-12.33-7.86
						C96.07,100.33,90.76,105.87,87.51,105.7z"/>
				</g>
			</g>
			<g>
				<g>
					<ellipse class="st0" cx="78.95" cy="73.49" rx="2.53" ry="1.93"/>
				</g>
			</g>
			<g>
				<g>
					<ellipse class="st0" cx="122.3" cy="73.49" rx="2.53" ry="1.93"/>
				</g>
			</g>
			<g>
				<g>
					<path class="st15" d="M52.14,20.97c-1.02,0.33-1.86,1.24-2.56,2.52c2.65,0.28,8.37,2.61,14.36,15.88
						c1.86-0.48,3.66-0.82,5.28-0.96C69.22,38.42,58.35,18.96,52.14,20.97z"/>
				</g>
			</g>
			<g>
				<g>
					<path class="st15" d="M146.83,20.97c1.02,0.33,1.86,1.24,2.56,2.52c-2.65,0.28-8.37,2.61-14.36,15.88
						c-1.86-0.48-3.66-0.82-5.28-0.96C129.75,38.42,140.62,18.96,146.83,20.97z"/>
				</g>
			</g>
			<g>
				<g>
					<path class="st16" d="M32.59,87.12c0,0-1.91,21.46,0,25.29c4.98-0.96,8.81,2.89,7.47,8.05c-1.34,5.16-1.72,15.5-1.72,17.8
						c2.49-3.45,9.19-4.02,10.53,1.34c1.34,5.36,3.64,19.53,5.17,22.98c1.53-4.98,7.2-3.45,8.48-1.53c1.29,1.91,4.16,6.13,4.16,6.13
						s2.11-10.15,13.69-2.49c6.22,5.74,11.98,9.57,21.35,13.57c8.81-5.57,19.19-14.34,19.19-14.34s7.24-7.09,12.22,2.87
						c1.72-4.98,5.55-12.06,13.6-5.94c1.34-7.66,3.64-16.47,3.83-19.72c0.19-3.26,5.43-11.37,10.85-4.84
						c-0.96-8.43-1.02-14.3-1.53-17.88c-0.51-3.57,4.21-8.81,9.32-4.85c-2.3-14.17-1.91-23.87-3.57-28.6
						c4.97,8.47,12.07,33.73,10.57,42.94c-5.78-3.28-8.97-7.44-8.97-7.44s2.81,24.56-4.15,38.22c-3.7-9.02-6.19-14.11-6.19-14.11
						s1.66,20.86-12.48,33.79c-2.6-8.06-4.18-10.05-4.18-10.05s-6.26,11.64-12.42,15.68c-1.87-7.64-1.86-12.46-1.86-12.46
						s-13.95,11.23-23.77,16.06c-13.08-3.61-28.29-15.93-28.29-15.93l-0.77,15.21c0,0-15.07-16.28-15.34-18
						c-3.42,10.52-2.14,12.29-2.14,12.29s-13.02-24.23-13.52-36.54c-3.19,10.34-5.1,14.68-5.1,14.68s-7.64-16.66-5.26-36.38
						c-5.66,4.02-8.05,6.48-8.05,6.48S24.16,96.68,32.59,87.12z"/>
				</g>
			</g>
		</g>
		<g>
			<path class="st17" d="M128.04,95.06c-1.06-0.3-2.17,0.31-2.47,1.37c-0.02,0.06-1.9,6.27-11.18,6.27
				c-8.59,0-10.45-4.74-12.26-9.32c-0.18-0.45-0.35-0.89-0.52-1.3c-0.32-0.77-1.05-1.26-1.92-1.23c-0.83,0.03-1.56,0.57-1.83,1.36
				c-1.71,5.07-6.34,10.5-14.22,10.5c-7.68,0-10.99-6.59-11.13-6.87c-0.48-0.99-1.67-1.41-2.66-0.93c-1,0.48-1.42,1.67-0.94,2.67
				c0.18,0.37,4.49,9.13,14.73,9.13c0.39,0,0.77-0.02,1.15-0.04c0.06,3.22,0.69,13.25,6.02,18.7c2.36,2.42,5.31,3.64,8.76,3.64
				c3.45,0,6.4-1.23,8.76-3.64c5.3-5.43,5.93-15.4,6-18.66c0.02,0,0.04,0,0.06,0c12.26,0,14.92-8.8,15.02-9.17
				C129.72,96.47,129.11,95.36,128.04,95.06z M105.47,122.58c-1.6,1.63-3.52,2.43-5.89,2.43c-2.37,0-4.29-0.79-5.89-2.43
				c-4.66-4.76-4.89-14.81-4.89-16.56c4.98-1.38,8.58-4.68,10.84-8.27c1.69,3.58,4.49,7.43,10.71,8.6
				C110.31,108.76,109.89,118.05,105.47,122.58z"/>
			<g>
				<g>
					<path class="st17" d="M102.16,189.61c-0.08,0-0.15,0-0.23-0.01c-9.7-1.1-20.65-9.11-26.06-13.54c0,2.77,0,6.47-0.01,9.89
						c0,0.72-0.39,1.38-1.02,1.74c-0.63,0.35-1.4,0.34-2.02-0.03c-5.79-3.52-10.64-10.41-13.36-14.88c-0.49,1.97-1.12,4.8-1.89,8.8
						c-0.15,0.77-0.74,1.38-1.5,1.57c-0.77,0.18-1.56-0.1-2.04-0.72c-6.76-8.69-10.54-21.43-12.41-29.61
						c-0.67,2.27-1.44,4.96-2.23,7.94c-0.21,0.79-0.88,1.38-1.7,1.47c-0.82,0.09-1.61-0.32-2-1.04
						c-6.69-12.48-6.99-25.41-6.27-33.35c-1.13,1.32-2.5,2.86-4.14,4.65c-0.53,0.58-1.36,0.79-2.11,0.54
						c-0.75-0.25-1.28-0.91-1.36-1.7c-1.48-14.69,3.77-33.34,6.69-42.27c-1.96,1.38-4.07,3.21-5.24,5.33
						c-0.42,0.76-1.27,1.16-2.12,1c-0.85-0.16-1.5-0.85-1.61-1.71c-2.53-19.28,14.31-39.12,17.61-42.8
						c0.17-6.39,1.6-37.76,13.76-40.22c0.56-0.25,1.49-0.49,2.83-0.28c5.68,0.91,14.13,9.38,24.48,24.52
						c2.99-2.14,9.47-5.97,17.65-6.15c1.29-0.04,2.49,0.69,3.06,1.88c0.36,0.75,0.43,1.58,0.22,2.34c3.69-1.42,8.59-3.01,13.65-3.82
						c1.33-0.21,2.67,0.4,3.37,1.56c0.7,1.16,0.64,2.61-0.16,3.69c-0.07,0.09-0.14,0.18-0.2,0.27c2.22-0.69,4.25-1.2,6.05-1.51
						c1.74-2.71,15.86-24.1,27.07-22.57c0.06,0.01,0.12,0.02,0.17,0.03c10.27,2.31,13.3,32.24,13.92,40.13
						c3.08,2.99,16.35,17.3,17.25,42.47c0.03,0.93-0.57,1.75-1.47,2s-1.84-0.15-2.28-0.96c-1.17-2.12-3.28-3.95-5.24-5.33
						c2.91,8.92,8.16,27.58,6.69,42.27c-0.08,0.78-0.61,1.45-1.36,1.7c-0.75,0.25-1.57,0.04-2.11-0.54
						c-1.64-1.79-3.01-3.33-4.14-4.65c0.72,7.95,0.42,20.87-6.27,33.35c-0.39,0.72-1.18,1.13-2,1.04c-0.82-0.1-1.49-0.68-1.7-1.47
						c-0.79-2.98-1.55-5.67-2.23-7.94c-1.87,8.17-5.65,20.92-12.41,29.61c-0.48,0.62-1.28,0.9-2.04,0.72
						c-0.76-0.18-1.35-0.79-1.5-1.57c-0.77-4-1.41-6.83-1.89-8.8c-2.72,4.48-7.56,11.37-13.36,14.88c-0.62,0.38-1.39,0.39-2.02,0.03
						c-0.63-0.35-1.02-1.02-1.02-1.74c-0.01-3.29-0.01-6.85-0.01-9.59c-4.28,3.82-12.11,9.99-21.08,13.27
						C102.62,189.57,102.39,189.61,102.16,189.61z M73.86,169.68c0.5,0,0.98,0.18,1.36,0.54c0.15,0.14,14.86,13.69,26.69,15.35
						c12.21-4.64,22.46-15.29,22.56-15.4c0.57-0.59,1.43-0.78,2.19-0.48c0.76,0.31,1.26,1.04,1.25,1.86c0,0-0.01,4.92-0.01,10.28
						c6.37-5.61,11.12-15.08,11.18-15.19c0.34-0.68,1.03-1.11,1.79-1.11c0,0,0,0,0,0c0.76,0,1.45,0.43,1.79,1.11
						c0.17,0.34,0.99,2.23,2.52,9.38c7.78-12.87,10.49-31.58,10.52-31.79c0.13-0.92,0.87-1.62,1.79-1.71
						c0.92-0.08,1.78,0.47,2.08,1.34c0.02,0.05,1.42,4.17,3.22,10.46c6.64-16.67,2.5-33.17,2.45-33.35
						c-0.25-0.95,0.24-1.95,1.14-2.34c0.9-0.39,1.96-0.07,2.48,0.77c0.01,0.02,1.32,2.05,5.32,6.63
						c0.06-18.14-8.38-40.62-8.48-40.87c-0.29-0.76-0.09-1.62,0.5-2.17c0.59-0.55,1.46-0.7,2.2-0.36c0.23,0.1,3.96,1.83,7.35,4.73
						c-2.8-22.31-15.88-34.06-16.03-34.19c-0.39-0.35-0.64-0.83-0.67-1.36c-1.06-14.64-5.11-35.81-10.79-37.28
						c-6.87-0.79-18.48,13.25-23.21,20.99c-0.5,0.82-1.34,1.38-2.3,1.53c-2.21,0.36-4.83,1.06-7.81,2.09c-1.41,0.49-2.94,0-3.8-1.22
						c-0.86-1.22-0.81-2.82,0.13-3.99c0.14-0.18,0.29-0.36,0.43-0.55c-5.01,0.98-9.77,2.7-13.01,4.04
						c-1.43,0.59-3.01,0.15-3.93-1.09c-0.78-1.06-0.87-2.4-0.27-3.52c-8.89,0.75-15.37,6.4-15.44,6.46
						c-0.43,0.38-1.01,0.56-1.58,0.49c-0.57-0.07-1.09-0.39-1.41-0.87C59.32,13.87,53.07,14.21,52.55,14.3
						c-0.21,0.12-0.44,0.2-0.68,0.24c-7.38,1.14-10.5,23.4-10.73,37.16c-0.01,0.5-0.2,0.97-0.54,1.34
						c-0.18,0.19-16.3,17.57-17.26,35.05c3.55-3.25,7.78-5.21,8.02-5.32c0.74-0.34,1.61-0.19,2.2,0.36c0.59,0.55,0.79,1.41,0.5,2.17
						c-0.09,0.25-8.54,22.74-8.48,40.87c4-4.58,5.31-6.61,5.33-6.64c0.53-0.83,1.58-1.16,2.49-0.76c0.9,0.39,1.39,1.38,1.14,2.33
						c-0.05,0.18-4.18,16.68,2.45,33.35c1.8-6.29,3.2-10.41,3.22-10.46c0.3-0.87,1.16-1.44,2.08-1.34c0.92,0.09,1.66,0.8,1.79,1.71
						c0.03,0.21,2.75,18.92,10.52,31.79c1.53-7.16,2.35-9.04,2.52-9.38c0.34-0.68,1.03-1.11,1.79-1.11c0,0,0,0,0,0
						c0.76,0,1.45,0.43,1.79,1.11c0.05,0.11,4.81,9.58,11.18,15.19c0.01-5.35-0.01-10.27-0.01-10.27c0-0.8,0.47-1.52,1.2-1.84
						C73.32,169.74,73.59,169.68,73.86,169.68z M95.42,31.63C95.42,31.63,95.42,31.63,95.42,31.63L95.42,31.63z M52.77,14.15
						C52.77,14.15,52.77,14.15,52.77,14.15C52.77,14.15,52.77,14.15,52.77,14.15z M52.78,14.14c0,0-0.01,0.01-0.01,0.01
						C52.77,14.15,52.78,14.15,52.78,14.14z M52.79,14.14C52.79,14.14,52.79,14.14,52.79,14.14C52.79,14.14,52.79,14.14,52.79,14.14
						z"/>
				</g>
			</g>
		</g>
	</g>
</g>
<g id="图层_4">
</g>
</svg>
