<?xml version="1.0" standalone="no"?>
<!DOCTYPE svg PUBLIC "-//W3C//DTD SVG 20010904//EN"
 "http://www.w3.org/TR/2001/REC-SVG-20010904/DTD/svg10.dtd">
<svg version="1.0" xmlns="http://www.w3.org/2000/svg"
 width="144.000000pt" height="144.000000pt" viewBox="0 0 144.000000 144.000000"
 preserveAspectRatio="xMidYMid meet">
<metadata>
Created by potrace 1.13, written by Peter Selinger 2001-2015
</metadata>
<g transform="translate(0.000000,144.000000) scale(0.080000,-0.080000)"
fill="#000000" stroke="none">
<path d="M1028 1735 c-4 -4 -26 -9 -49 -11 -24 -3 -43 -5 -44 -7 -1 -1 -5 -28
-9 -59 -5 -48 -4 -58 9 -58 8 0 15 5 15 12 0 9 3 9 12 0 21 -21 28 -13 25 31
-4 40 -2 43 21 45 32 3 34 5 30 32 -2 12 -6 19 -10 15z"/>
<path d="M1014 1554 c-7 -3 -10 -14 -7 -25 3 -10 0 -26 -7 -34 -11 -13 -10
-15 6 -9 18 5 18 5 1 -9 -20 -17 -30 -16 -94 7 -94 34 -234 -18 -278 -104 -13
-26 -18 -27 -50 -20 -38 9 -101 -2 -144 -25 -42 -21 -98 -89 -112 -135 -16
-52 -38 -65 -85 -50 -41 14 -59 6 -23 -10 20 -9 18 -9 -14 -5 -26 4 -37 3 -32
-4 3 -6 14 -11 23 -11 16 -1 16 -2 0 -14 -25 -18 -23 -29 2 -16 19 10 20 9 15
-17 -5 -27 -5 -27 12 5 9 17 20 32 25 32 5 0 4 -9 -2 -21 -7 -11 -9 -23 -7
-26 3 -3 13 10 23 29 16 31 31 48 45 48 4 0 12 -20 18 -46 8 -31 25 -59 56
-90 34 -34 41 -46 30 -50 -8 -4 -15 -10 -15 -15 0 -5 11 -3 25 3 18 8 35 8 62
0 21 -6 61 -14 88 -17 83 -11 166 -35 219 -63 28 -15 54 -28 58 -30 3 -2 11
19 16 45 32 146 187 389 228 355 5 -4 2 1 -5 10 -10 13 -18 15 -31 8 -15 -8
-18 -3 -23 50 -3 35 -14 74 -26 93 -26 42 -26 44 -2 57 14 7 22 7 27 -2 5 -7
3 -8 -7 -3 -8 5 -10 4 -6 0 10 -11 38 -16 58 -10 21 7 40 67 25 80 -14 12 -34
18 -64 19 -13 1 -20 6 -17 14 2 6 3 12 2 11 -1 0 -7 -3 -13 -5z m-122 -84 c21
-6 40 -16 44 -22 4 -6 3 -8 -4 -4 -5 3 -12 2 -14 -3 -1 -6 -56 -35 -121 -65
-100 -47 -121 -54 -141 -45 -21 10 -23 15 -14 41 13 38 68 78 126 94 59 16 78
16 124 4z m97 -66 c30 -38 44 -90 37 -138 l-7 -42 -152 -69 c-84 -37 -212 -95
-285 -127 -132 -60 -133 -60 -160 -42 -14 10 -34 27 -44 38 -22 26 -51 101
-46 116 3 11 252 130 270 130 5 0 8 -4 8 -10 0 -5 9 -19 20 -30 11 -11 20 -27
20 -36 0 -8 4 -13 10 -9 5 3 7 12 4 19 -3 8 6 25 21 40 18 18 24 32 20 48 -5
21 5 28 122 80 70 31 131 57 135 57 4 1 16 -11 27 -25z m-384 -88 c0 -28 -7
-32 -133 -89 -73 -33 -135 -57 -138 -54 -9 9 32 90 57 113 48 44 101 64 159
61 53 -2 55 -3 55 -31z m83 -43 c-2 -22 -9 -29 -31 -31 -18 -2 -29 2 -34 14
-7 19 20 44 50 44 14 0 18 -6 15 -27z m296 -120 c-65 -114 -103 -192 -119
-245 -9 -32 -20 -58 -23 -58 -4 0 -16 6 -27 14 -35 24 -137 55 -234 71 -51 8
-98 18 -103 21 -10 6 495 242 520 243 9 1 5 -15 -14 -46z"/>
<path d="M860 1270 c0 -6 -5 -8 -12 -4 -8 5 -9 2 -5 -9 3 -10 2 -17 -2 -17 -5
0 -12 6 -14 13 -3 6 -6 1 -7 -13 l-1 -25 -11 23 c-21 43 -27 21 -6 -25 26 -60
30 -64 22 -26 -8 41 13 54 38 23 l19 -24 -7 28 c-4 16 -2 31 4 35 6 4 5 11 -4
19 -9 8 -14 9 -14 2z"/>
<path d="M580 1144 c0 -17 -4 -23 -12 -18 -7 4 -6 0 2 -9 20 -19 60 -32 60
-18 0 6 -7 11 -15 11 -10 0 -15 10 -15 30 0 17 -4 30 -10 30 -5 0 -10 -12 -10
-26z"/>
<path d="M522 1132 c4 -12 2 -22 -3 -22 -17 0 3 -28 23 -33 16 -5 18 -3 9 6
-6 6 -11 21 -11 33 0 13 -5 26 -12 30 -8 5 -9 0 -6 -14z"/>
<path d="M962 1525 c-7 -9 -8 -15 -2 -15 5 0 10 -7 10 -16 0 -9 -5 -12 -12 -8
-7 4 -9 3 -5 -1 19 -22 33 -12 29 21 -2 19 -5 34 -6 34 0 -1 -7 -7 -14 -15z"/>
<path d="M1220 1110 c-6 -12 -7 -20 -1 -20 5 0 11 6 13 12 3 7 18 11 36 10 18
-1 32 2 32 8 0 5 -16 10 -35 10 -24 0 -37 -6 -45 -20z"/>
<path d="M1077 1053 c-4 -3 -7 -16 -7 -27 1 -19 2 -19 11 -3 5 9 21 17 35 17
14 0 22 4 19 10 -7 11 -48 14 -58 3z"/>
<path d="M1306 598 c-3 -7 -7 -26 -10 -43 -3 -16 -8 -41 -12 -55 -11 -43 20
-2 44 58 21 51 21 52 1 52 -11 0 -21 -6 -23 -12z"/>
<path d="M73 260 c0 -36 2 -50 4 -32 2 17 2 47 0 65 -2 17 -4 3 -4 -33z"/>
</g>
</svg>
